# xmcd CD database file
#
# Track frame offsets:
#	182
#	11842
#	22815
#	38012
#	50710
#	64792
#	76500
#	89087
#	100952
#	119440
#	134715
#	151842
#	166285
#	184437
#	197400
#	210147
#	224542
#	236075
#	245445
#	257572
#
# Disc length: 3615 seconds
#
# Revision: 0
# Processed by: cddbd v1.4PL0 Copyright (c) Steve Scherf et al.
# Submitted via: CDex 1.50Beta5
#
DISCID=120e1d14
DTITLE=Sydney Devine - Crying Time
DYEAR=1994
DGENRE=Country
TTITLE0=Crying time
TTITLE1=A broken engagement
TTITLE2=My son calls another man daddy
TTITLE3=Long black limousine
TTITLE4=Two little orphans
TTITLE5=Eighteen yellow roses
TTITLE6=Rose Marie
TTITLE7=It keeps right on a-hurtin´
TTITLE8=Maggie
TTITLE9=I can´t stop loving you
TTITLE10=Old Shep
TTITLE11=A letter edged in black
TTITLE12=Nobody´s child
TTITLE13=I ain´t crying mister
TTITLE14=Gentle mother
TTITLE15=Come home Rolling Stone
TTITLE16=A tear fell
TTITLE17=No one will ever know
TTITLE18=Kelly
TTITLE19=Donna
EXTD=YEAR: 1994
EXTT0=
EXTT1=
EXTT2=
EXTT3=
EXTT4=
EXTT5=
EXTT6=
EXTT7=
EXTT8=
EXTT9=
EXTT10=
EXTT11=
EXTT12=
EXTT13=
EXTT14=
EXTT15=
EXTT16=
EXTT17=
EXTT18=
EXTT19=
PLAYORDER=
